<svg xmlns="http://www.w3.org/2000/svg" width="888" height="651.931" viewBox="0 0 888 651.931">
  <g id="avatar" transform="translate(-960 -128)">
    <ellipse id="Ellipse_1" data-name="Ellipse 1" cx="96.348" cy="20.007" rx="96.348" ry="20.007" transform="translate(960.331 739.786)" fill="#e6e6e6"/>
    <ellipse id="Ellipse_2" data-name="Ellipse 2" cx="33.216" cy="31.114" rx="33.216" ry="31.114" transform="translate(981.863 240.537)" fill="#2f2e41"/>
    <path id="Path_1" data-name="Path 1" d="M307.784,461.514l8.409,11.773s40.363,8.409,25.227,21.023-37-11.773-37-11.773L292.647,467.4Z" transform="translate(804 3.965)" fill="#ffb8b8"/>
    <path id="Path_2" data-name="Path 2" d="M264.056,327.81s10.932,0,13.454,15.136,5.045,65.591,5.045,65.591,35.318,46.25,29.432,52.136-12.613,16.818-16.818,15.136-40.363-51.3-40.363-51.3Z" transform="translate(804 3.965)" fill="#e6e6e6"/>
    <path id="Path_3" data-name="Path 3" d="M230.42,284.923s.841,32.8,10.932,34.477,6.727,12.614,6.727,12.614-32.8,19.341-54.659,0l-4.2-10.091s15.136-10.932,8.409-26.068Z" transform="translate(804 3.965)" fill="#ffb8b8"/>
    <path id="Path_4" data-name="Path 4" d="M286.761,486.741s49.613,92.5,31.113,121.09-46.249,87.455-50.454,87.455-27.75-11.773-26.068-19.341,26.909-63.909,33.636-68.954,3.364-18.5,2.523-19.341-28.591-45.409-28.591-45.409.841,70.636-2.523,81.568.841,89.136-3.364,92.5-23.545,9.25-26.909,4.2-13.454-81.568-6.727-99.227L196.784,500.2Z" transform="translate(804 3.965)" fill="#2f2e41"/>
    <path id="Path_5" data-name="Path 5" d="M241.352,711.263l21.023,38.682s30.273,21.864,9.25,25.227-33.636-5.045-33.636-5.045l-18.5-13.455V717.99Z" transform="translate(804 3.965)" fill="#2f2e41"/>
    <path id="Path_6" data-name="Path 6" d="M269.943,689.4l-10.932,26.068s-4.2,10.932,0,13.455,15.977,17.659,8.409,19.341a24.651,24.651,0,0,1-4.621.459A46.726,46.726,0,0,1,228.828,734.9l-6.817-6.817s23.352-53.774,23.028-53.376S269.943,689.4,269.943,689.4Z" transform="translate(804 3.965)" fill="#2f2e41"/>
    <circle id="Ellipse_3" data-name="Ellipse 3" cx="28.591" cy="28.591" r="28.591" transform="translate(984.806 251.889)" fill="#ffb8b8"/>
    <path id="Path_7" data-name="Path 7" d="M193,316.457l8.83,8.829s26.909,10.091,39.523,0c0,0-4.625-9.67-4.625-8.829s36.579,6.307,39.943,21.443-2.523,41.2-2.523,41.2,23.545,111,14.3,113.522-95.863,23.545-95.022,7.568-6.727-81.568-6.727-81.568l-29.432-56.341s4.2-18.5,14.3-24.386S193,316.457,193,316.457Z" transform="translate(804 3.965)" fill="#e6e6e6"/>
    <path id="Path_8" data-name="Path 8" d="M230.42,480.855l10.932,6.727s42.045,28.591,20.182,33.636-34.477-20.182-34.477-20.182l-8.409-10.091Z" transform="translate(804 3.965)" fill="#ffb8b8"/>
    <path id="Path_9" data-name="Path 9" d="M168.193,357.241l-7.568,7.568s-5.045,70.636,5.045,84.932,56.341,52.977,58.863,50.454,18.5-15.136,15.136-16.818-48.085-48.41-48.085-48.41l3.517-65.112Z" transform="translate(804 3.965)" opacity="0.1"/>
    <path id="Path_10" data-name="Path 10" d="M164.83,354.719l-7.568,7.568s-5.045,70.636,5.045,84.931,56.341,52.977,58.863,50.454,18.5-15.136,15.136-16.818-48.086-48.411-48.086-48.411l3.517-65.112Z" transform="translate(804 3.965)" fill="#e6e6e6"/>
    <path id="Path_11" data-name="Path 11" d="M221.222,235.9s9.719-3.534,22.972,3.976l-7.068,1.767s10.6.884,11.928,15.02h-4.859s3.092,12.369,0,15.9l-1.988-3.755L236.463,280.3l-1.325-5.743-2.651.884-1.767-9.277s-4.418,6.626-7.952,7.068v-5.743s-9.719,11.044-12.811,10.6l4.418-6.185-6.185,1.325,2.651-4.418-15.9,4.418,3.534-4.418-11.044,3.534-5.3,2.209s-7.51-17.229,3.092-29.156S211.282,230.823,221.222,235.9Z" transform="translate(804 3.965)" fill="#2f2e41"/>
    <rect id="Rectangle_2" data-name="Rectangle 2" width="643.862" height="412.358" transform="translate(1181.885 196.991)" fill="#e6e6e6"/>
    <rect id="Rectangle_3" data-name="Rectangle 3" width="607.039" height="336.243" transform="translate(1200.296 248.711)" fill="#fff"/>
    <rect id="Rectangle_4" data-name="Rectangle 4" width="643.862" height="27.354" transform="translate(1181.609 196.626)" fill="#6c63ff"/>
    <circle id="Ellipse_4" data-name="Ellipse 4" cx="5.07" cy="5.07" r="5.07" transform="translate(1196.867 205.54)" fill="#fff"/>
    <circle id="Ellipse_5" data-name="Ellipse 5" cx="5.07" cy="5.07" r="5.07" transform="translate(1216.111 205.54)" fill="#fff"/>
    <circle id="Ellipse_6" data-name="Ellipse 6" cx="5.07" cy="5.07" r="5.07" transform="translate(1235.355 205.54)" fill="#fff"/>
    <rect id="Rectangle_5" data-name="Rectangle 5" width="155.981" height="266.467" transform="translate(1255.453 283.599)" fill="#e6e6e6"/>
    <rect id="Rectangle_6" data-name="Rectangle 6" width="129.984" height="73.348" transform="translate(1438.359 283.599)" fill="#6c63ff"/>
    <rect id="Rectangle_7" data-name="Rectangle 7" width="129.984" height="78.919" transform="translate(1438.359 377.373)" fill="#e6e6e6"/>
    <rect id="Rectangle_8" data-name="Rectangle 8" width="129.984" height="73.348" transform="translate(1438.359 476.718)" fill="#e6e6e6"/>
    <rect id="Rectangle_9" data-name="Rectangle 9" width="155.981" height="116.125" transform="translate(1596.198 283.599)" fill="#e6e6e6"/>
    <rect id="Rectangle_10" data-name="Rectangle 10" width="155.981" height="116.125" transform="translate(1596.198 433.941)" fill="#6c63ff"/>
    <path id="Path_12" data-name="Path 12" d="M544.691,188.755l-2.036-.541L587.089,21.06H844.827v2.106H588.708Z" transform="translate(960 128)" fill="#3f3d56"/>
    <path id="Path_13" data-name="Path 13" d="M1021.89,168.26A22.113,22.113,0,1,1,1044,146.148a22.113,22.113,0,0,1-22.11,22.112Zm0-42.119a20.007,20.007,0,1,0,20.007,20.007,20.007,20.007,0,0,0-20.007-20.007Z" transform="translate(804 3.965)" fill="#3f3d56"/>
    <circle id="Ellipse_7" data-name="Ellipse 7" cx="8.424" cy="8.424" r="8.424" transform="translate(1817.463 141.688)" fill="#6c63ff"/>
    <path id="Path_14" data-name="Path 14" d="M672.947,530.706H415.208V528.6h256.12l44.017-165.59,2.036.541Z" transform="translate(960 128)" fill="#3f3d56"/>
    <path id="Path_15" data-name="Path 15" d="M550.149,675.8a22.113,22.113,0,1,1,22.113-22.113A22.113,22.113,0,0,1,550.149,675.8Zm0-42.12a20.007,20.007,0,1,0,20.007,20.007,20.007,20.007,0,0,0-20.007-20.007Z" transform="translate(804 3.965)" fill="#3f3d56"/>
    <circle id="Ellipse_8" data-name="Ellipse 8" cx="8.424" cy="8.424" r="8.424" transform="translate(1345.725 649.229)" fill="#6c63ff"/>
  </g>
</svg>
